<?xml version="1.0" encoding="UTF-8"?>
<svg xmlns="http://www.w3.org/2000/svg" xmlns:xlink="http://www.w3.org/1999/xlink" width="128px" height="128px" viewBox="0 0 128 128" version="1.1">
<g id="surface1">
<path style=" stroke:none;fill-rule:nonzero;fill:rgb(6.666667%,9.411765%,15.294118%);fill-opacity:1;" d="M 0 0 C 42.238281 0 84.480469 0 128 0 C 128 42.238281 128 84.480469 128 128 C 85.761719 128 43.519531 128 0 128 C 0 85.761719 0 43.519531 0 0 Z M 0 0 "/>
<path style=" stroke:none;fill-rule:nonzero;fill:rgb(99.607843%,99.607843%,99.607843%);fill-opacity:1;" d="M 57.71875 27.851562 C 61.863281 27.851562 66.011719 27.851562 70.28125 27.851562 C 70.632812 28.867188 70.980469 29.886719 71.339844 30.933594 C 72.101562 33.140625 72.867188 35.347656 73.652344 37.546875 C 74.425781 39.722656 75.183594 41.90625 75.933594 44.089844 C 75.960938 44.167969 75.988281 44.246094 76.015625 44.324219 C 76.066406 44.480469 76.121094 44.636719 76.175781 44.792969 C 76.789062 46.578125 77.402344 48.367188 78.03125 50.148438 C 78.0625 50.242188 78.09375 50.335938 78.128906 50.429688 C 78.257812 50.800781 78.386719 51.171875 78.519531 51.539062 C 78.914062 52.664062 79.304688 53.789062 79.695312 54.910156 C 79.769531 55.125 79.84375 55.339844 79.921875 55.554688 C 80.070312 55.980469 80.21875 56.410156 80.367188 56.839844 C 80.703125 57.796875 81.035156 58.753906 81.371094 59.710938 C 81.554688 60.242188 81.742188 60.773438 81.925781 61.304688 C 82 61.515625 82.074219 61.726562 82.148438 61.941406 C 89.480469 82.964844 89.480469 82.964844 93.371094 94.109375 C 93.445312 94.324219 93.519531 94.535156 93.59375 94.75 C 93.777344 95.277344 93.960938 95.804688 94.144531 96.332031 C 94.492188 97.328125 94.839844 98.324219 95.191406 99.324219 C 95.355469 99.796875 95.523438 100.269531 95.6875 100.738281 C 95.765625 100.964844 95.847656 101.191406 95.925781 101.417969 C 96.035156 101.730469 96.144531 102.042969 96.253906 102.355469 C 96.289062 102.445312 96.320312 102.539062 96.351562 102.632812 C 96.398438 102.761719 96.398438 102.761719 96.445312 102.894531 C 96.46875 102.96875 96.496094 103.042969 96.523438 103.117188 C 96.605469 103.386719 96.65625 103.664062 96.710938 103.941406 C 93.542969 103.941406 90.375 103.941406 87.109375 103.941406 C 86.792969 102.984375 86.476562 102.027344 86.148438 101.042969 C 85.460938 98.984375 84.773438 96.925781 84.066406 94.875 C 83.609375 93.546875 83.160156 92.214844 82.71875 90.882812 C 82.691406 90.804688 82.664062 90.726562 82.636719 90.644531 C 82.375 89.859375 82.113281 89.070312 81.855469 88.285156 C 81.78125 88.0625 81.707031 87.835938 81.632812 87.613281 C 81.542969 87.34375 81.449219 87.070312 81.359375 86.800781 C 80.960938 85.59375 80.539062 84.398438 80.117188 83.199219 C 69.402344 83.160156 58.6875 83.121094 47.644531 83.082031 C 47.527344 83.511719 47.410156 83.941406 47.289062 84.386719 C 47.179688 84.734375 47.066406 85.082031 46.949219 85.429688 C 46.917969 85.527344 46.886719 85.621094 46.851562 85.71875 C 46.75 86.03125 46.644531 86.339844 46.539062 86.652344 C 46.464844 86.875 46.390625 87.097656 46.316406 87.320312 C 45.769531 88.949219 45.21875 90.574219 44.660156 92.199219 C 44.207031 93.523438 43.757812 94.84375 43.3125 96.167969 C 43.28125 96.253906 43.253906 96.339844 43.222656 96.429688 C 42.933594 97.289062 42.640625 98.148438 42.351562 99.007812 C 42.242188 99.332031 42.132812 99.660156 42.023438 99.984375 C 41.949219 100.203125 41.875 100.425781 41.796875 100.648438 C 41.425781 101.75 41.039062 102.84375 40.652344 103.941406 C 37.5625 103.941406 34.472656 103.941406 31.289062 103.941406 C 31.445312 103.234375 31.609375 102.585938 31.847656 101.910156 C 31.882812 101.824219 31.914062 101.734375 31.945312 101.640625 C 32.050781 101.34375 32.15625 101.050781 32.257812 100.753906 C 32.332031 100.546875 32.40625 100.335938 32.480469 100.125 C 32.636719 99.683594 32.792969 99.242188 32.949219 98.800781 C 33.289062 97.84375 33.621094 96.882812 33.957031 95.921875 C 34.105469 95.496094 34.253906 95.070312 34.402344 94.644531 C 34.515625 94.324219 34.625 94 34.738281 93.679688 C 35.074219 92.722656 35.40625 91.765625 35.742188 90.808594 C 35.925781 90.277344 36.109375 89.746094 36.296875 89.214844 C 36.371094 89.003906 36.445312 88.789062 36.519531 88.578125 C 36.554688 88.472656 36.59375 88.367188 36.628906 88.257812 C 36.964844 87.304688 36.964844 87.304688 37.074219 86.984375 C 37.148438 86.773438 37.222656 86.5625 37.296875 86.347656 C 37.480469 85.816406 37.667969 85.285156 37.851562 84.75 C 38.179688 83.8125 38.507812 82.878906 38.832031 81.941406 C 39.011719 81.433594 39.1875 80.929688 39.363281 80.421875 C 39.398438 80.320312 39.433594 80.21875 39.472656 80.113281 C 39.941406 78.757812 40.417969 77.402344 40.890625 76.050781 C 40.96875 75.828125 40.96875 75.828125 41.046875 75.605469 C 41.074219 75.53125 41.097656 75.453125 41.125 75.378906 C 41.257812 74.996094 41.394531 74.617188 41.527344 74.238281 C 41.550781 74.160156 41.578125 74.085938 41.605469 74.007812 C 42.398438 71.75 43.183594 69.488281 43.96875 67.226562 C 44.625 65.332031 45.285156 63.4375 45.949219 61.546875 C 45.980469 61.453125 46.015625 61.355469 46.050781 61.257812 C 46.082031 61.164062 46.117188 61.066406 46.152344 60.96875 C 46.546875 59.835938 46.945312 58.699219 47.339844 57.5625 C 47.378906 57.457031 47.414062 57.351562 47.453125 57.242188 C 47.640625 56.707031 47.824219 56.171875 48.011719 55.636719 C 48.347656 54.679688 48.679688 53.71875 49.015625 52.761719 C 49.199219 52.230469 49.386719 51.699219 49.570312 51.171875 C 49.644531 50.957031 49.71875 50.746094 49.792969 50.535156 C 49.828125 50.429688 49.867188 50.324219 49.902344 50.214844 C 53.792969 39.066406 53.792969 39.066406 53.902344 38.75 C 53.976562 38.535156 54.050781 38.324219 54.125 38.109375 C 54.308594 37.582031 54.496094 37.054688 54.679688 36.527344 C 55.023438 35.539062 55.367188 34.550781 55.710938 33.5625 C 55.871094 33.101562 56.035156 32.640625 56.195312 32.179688 C 56.269531 31.960938 56.347656 31.742188 56.421875 31.523438 C 56.53125 31.21875 56.636719 30.914062 56.742188 30.609375 C 56.773438 30.523438 56.800781 30.433594 56.832031 30.347656 C 57.125 29.511719 57.421875 28.683594 57.71875 27.851562 Z M 57.71875 27.851562 "/>
<path style=" stroke:none;fill-rule:nonzero;fill:rgb(6.666667%,9.411765%,15.294118%);fill-opacity:1;" d="M 63.171875 37.097656 C 63.640625 37.097656 64.109375 37.097656 64.59375 37.097656 C 64.945312 37.957031 65.257812 38.820312 65.546875 39.703125 C 65.59375 39.839844 65.636719 39.976562 65.683594 40.117188 C 65.828125 40.554688 65.972656 40.992188 66.117188 41.429688 C 66.304688 41.996094 66.492188 42.5625 66.679688 43.125 C 66.703125 43.199219 66.730469 43.273438 66.753906 43.347656 C 67.199219 44.683594 67.652344 46.019531 68.109375 47.351562 C 68.703125 49.089844 69.296875 50.832031 69.882812 52.574219 C 69.9375 52.746094 69.9375 52.746094 69.996094 52.917969 C 70.191406 53.496094 70.386719 54.074219 70.582031 54.65625 C 70.996094 55.890625 71.414062 57.125 71.828125 58.355469 C 71.890625 58.539062 71.890625 58.539062 71.953125 58.726562 C 72.621094 60.710938 73.289062 62.695312 73.960938 64.679688 C 74.109375 65.113281 74.257812 65.546875 74.402344 65.980469 C 74.847656 67.296875 75.296875 68.613281 75.746094 69.925781 C 75.933594 70.476562 76.121094 71.027344 76.308594 71.574219 C 76.484375 72.089844 76.660156 72.601562 76.835938 73.113281 C 76.925781 73.375 77.015625 73.636719 77.105469 73.902344 C 77.148438 74.019531 77.1875 74.140625 77.230469 74.261719 C 77.269531 74.371094 77.304688 74.480469 77.34375 74.59375 C 77.375 74.6875 77.410156 74.785156 77.441406 74.882812 C 77.511719 75.140625 77.511719 75.140625 77.511719 75.613281 C 68.515625 75.613281 59.519531 75.613281 50.25 75.613281 C 50.519531 74.414062 50.519531 74.414062 50.664062 73.980469 C 50.695312 73.882812 50.730469 73.785156 50.761719 73.683594 C 50.796875 73.582031 50.832031 73.476562 50.867188 73.371094 C 50.90625 73.257812 50.941406 73.148438 50.980469 73.03125 C 51.101562 72.667969 51.226562 72.304688 51.347656 71.941406 C 51.433594 71.683594 51.519531 71.421875 51.609375 71.164062 C 52.183594 69.449219 52.765625 67.738281 53.351562 66.03125 C 54.027344 64.058594 54.691406 62.085938 55.359375 60.113281 C 56.226562 57.546875 57.09375 54.976562 57.96875 52.410156 C 58.660156 50.386719 59.34375 48.363281 60.03125 46.339844 C 61.074219 43.257812 62.121094 40.175781 63.171875 37.097656 Z M 63.171875 37.097656 "/>
</g>
</svg>
